<svg xmlns="http://www.w3.org/2000/svg" height="48" viewBox="0 96 960 960" width="48"><path d="M120 680v-35h197v-68q0-14-9-23t-23-9h-61q-6.7 0-11.85-5.211-5.15-5.21-5.15-12 0-6.789 5.15-12.289T224 510h61q26.5 0 46.75 20.25T352 577v68h111V357q0-59.482 39.827-101.241Q542.655 214 601.6 215q42.126 0 76.839 20.567Q713.151 256.133 730 293l33 66-32 15-33-65q-12.951-27.63-37.859-43.315Q635.232 250 605.333 250q-46.66 0-76.997 30.958Q498 311.917 498 357v288h111v-68q0-26.5 19.75-46.75T676 510h60q7.125 0 12.562 5.503Q754 521.006 754 528.228q0 6.797-5.438 11.785Q743.125 545 736 545h-60q-14 0-23 9t-9 23v68h197v35H120Zm147 216q-27.5 0-47.25-19.75T200 829V680h35v149q0 14 9 23t23 9h427q14 0 23-9t9-23V680h35v159q0 25.125-16.675 41.062Q727.65 896 703 896H267Z"/></svg>