<svg xmlns="http://www.w3.org/2000/svg" height="48" viewBox="0 96 960 960" width="48"><path d="M214 951q-27.725 0-47.363-19.638Q147 911.725 147 884V766l148-164 24 25-146 165h615L644 628l25-25 144 163v118q0 27.725-19.638 47.362Q773.725 951 746 951H214Zm0-35h532q13 0 22.5-9.5T778 884v-70H182v70q0 13 9.5 22.5T214 916Zm221-268L320 531q-21-21-20-48.5t21-48.5l171-171q19.769-19.84 46.885-19.42Q566 244 586 264l118 116q20 22 19.5 47.938Q723 453.876 702 475L529 648q-19.578 20-46.289 20.5Q456 669 435 648Zm239-199q9-8 9-23t-9-23L563 291q-9-8-23.5-8t-22.5 8L347 461q-9 9-9 23.5t9 22.5l111 112q9 8 23.5 8t22.5-8l170-170ZM182 916V814v102Z"/></svg>