<svg xmlns="http://www.w3.org/2000/svg" height="48" viewBox="0 96 960 960" width="48"><path d="M480 538q-50.012 0-83.006-32.994Q364 472.013 364 421.5t32.994-83.006Q429.988 306 480 306q50.013 0 83.006 32.494Q596 370.987 596 421.5t-32.994 83.506Q530.013 538 480 538ZM197 854v-62q0-26 15.094-47.375T252 711q59-27 115.923-40.5t112-13.5Q535 657 592 670.5t115.476 40.898q25.503 11.959 40.514 33.28Q763 766 763 792v62H197Zm35-35h496v-27q0-15-9.325-28.174T692 742q-52-25-105.187-37.5Q533.627 692 480 692q-53.626 0-106.813 12.5Q320 717 269 742q-18 9-27.5 21.81Q232 776.621 232 792v27Zm248-316q34 0 57.5-23.5T561 422q0-34-23.5-57.5T480 341q-34 0-57.5 23.5T399 422q0 34 23.5 57.5T480 503Zm0-81Zm0 397Z"/></svg>