<svg xmlns="http://www.w3.org/2000/svg" height="48" viewBox="0 96 960 960" width="48"><path d="M473 948q-75-2-142-31t-116-80q-49-51-78-117.823t-29-143.231q0-76.946 29.61-144.571 29.61-67.624 79.87-117.888 50.26-50.263 117.88-79.875Q402.98 204 480 204q146.6 0 252.3 98Q838 400 851 544h-35q-8.356-95.059-64.178-171.529Q696 296 606 260v19q0 36-24 60.5T522 364h-84v85q0 17.575-12 29.287Q414 490 396 490h-85v85h76v125h-33L151 499q-3 18-5.5 37.667-2.5 19.666-2.5 39.608Q143 713 238.5 812T473 913v35Zm367-27L698 781q-18 14-38 20t-39.565 6q-55.098 0-93.267-38.059-38.168-38.059-38.168-93t38.059-93.441q38.059-38.5 93-38.5t93.441 38.46q38.5 38.46 38.5 93.975Q752 697 745.5 718q-6.5 21-22.5 38.141L866 896l-26 25ZM619.859 772q40.081 0 68.611-28.099t28.53-67.76q0-40.081-28.401-68.611-28.402-28.53-68.5-28.53Q580 579 552 607.401q-28 28.402-28 68.5Q524 716 552.099 744q28.099 28 67.76 28Z"/></svg>